HIERARCHY
ROOT joint_Root
{
	OFFSET 0.0 0.0 0.0
	CHANNELS 6 Xposition Yposition Zposition Zrotation Xrotation Yrotation 
	JOINT Hips
	{
		OFFSET 4.5925 91.4895 -427.239
		CHANNELS 6 Xposition Yposition Zposition Zrotation Xrotation Yrotation 
		JOINT Spine
		{
			OFFSET 15.7357 0.0 0.0
			CHANNELS 6 Xposition Yposition Zposition Zrotation Xrotation Yrotation 
			JOINT Chest
			{
				OFFSET 8.98455 -0.406207 0.0
				CHANNELS 6 Xposition Yposition Zposition Zrotation Xrotation Yrotation 
				JOINT Neck
				{
					OFFSET 16.3773 0.0 0.0
					CHANNELS 6 Xposition Yposition Zposition Zrotation Xrotation Yrotation 
					JOINT Head
					{
						OFFSET 6.45672 0.0 0.0
						CHANNELS 6 Xposition Yposition Zposition Zrotation Xrotation Yrotation 
						End Site
						{
							OFFSET 0.0 0.0 0.0
						}
					}
				}
				JOINT Shoulder_L
				{
					OFFSET 12.9942 -0.242716 4.98039
					CHANNELS 6 Xposition Yposition Zposition Zrotation Xrotation Yrotation 
					JOINT UpperArm_L
					{
						OFFSET 5.34809 0.0 0.0
						CHANNELS 6 Xposition Yposition Zposition Zrotation Xrotation Yrotation 
						JOINT LowerArm_L
						{
							OFFSET 24.3286 1.87007e-05 0.0
							CHANNELS 6 Xposition Yposition Zposition Zrotation Xrotation Yrotation 
							JOINT Hand_L
							{
								OFFSET 22.2916 0.0 0.0
								CHANNELS 6 Xposition Yposition Zposition Zrotation Xrotation Yrotation 
								End Site
								{
									OFFSET 0.0 0.0 0.0
								}
							}
						}
					}
				}
				JOINT Shoulder_R
				{
					OFFSET 12.9945 -0.242716 -4.98039
					CHANNELS 6 Xposition Yposition Zposition Zrotation Xrotation Yrotation 
					JOINT UpperArm_R
					{
						OFFSET -5.34813 0.0 0.0
						CHANNELS 6 Xposition Yposition Zposition Zrotation Xrotation Yrotation 
						JOINT LowerArm_R
						{
							OFFSET -24.3289 0.000322201 0.0
							CHANNELS 6 Xposition Yposition Zposition Zrotation Xrotation Yrotation 
							JOINT Hand_R
							{
								OFFSET -22.2915 -0.000108084 0.0
								CHANNELS 6 Xposition Yposition Zposition Zrotation Xrotation Yrotation 
								End Site
								{
									OFFSET 0.0 0.0 0.0
								}
							}
						}
					}
				}
			}
		}
		JOINT UpperLeg_L
		{
			OFFSET -2.19248 -6.46944 0.0
			CHANNELS 6 Xposition Yposition Zposition Zrotation Xrotation Yrotation 
			JOINT LowerLeg_L
			{
				OFFSET 39.0811 0.0 -1.23785e-05
				CHANNELS 6 Xposition Yposition Zposition Zrotation Xrotation Yrotation 
				JOINT Foot_L
				{
					OFFSET 40.9854 0.0 -1.26872e-05
					CHANNELS 6 Xposition Yposition Zposition Zrotation Xrotation Yrotation 
					JOINT Toes_L
					{
						OFFSET 11.7543 0.0 0.0
						CHANNELS 6 Xposition Yposition Zposition Zrotation Xrotation Yrotation 
						End Site
						{
							OFFSET 0.0 0.0 0.0
						}
					}
				}
			}
		}
		JOINT UpperLeg_R
		{
			OFFSET -2.19251 6.46944 0.0
			CHANNELS 6 Xposition Yposition Zposition Zrotation Xrotation Yrotation 
			JOINT LowerLeg_R
			{
				OFFSET -39.0811 -0.00228153 -0.0401928
				CHANNELS 6 Xposition Yposition Zposition Zrotation Xrotation Yrotation 
				JOINT Foot_R
				{
					OFFSET -40.9854 0.0 0.0
					CHANNELS 6 Xposition Yposition Zposition Zrotation Xrotation Yrotation 
					JOINT Toes_R
					{
						OFFSET -11.7543 0.0 0.0
						CHANNELS 6 Xposition Yposition Zposition Zrotation Xrotation Yrotation 
						End Site
						{
							OFFSET 0.0 0.0 0.0
						}
					}
				}
			}
		}
	}
}
MOTION
Frames:	6
Frame Time:	0.0333333
0.000000 0.000000 0.000000 0.000000 0.000000 -0.000000 127.875000 88.680900 -9.914020 88.469600 -5.059110 2.250580 15.735700 0.000005 -0.000001 88.398800 80.542600 -89.116800 8.984550 -0.406207 -0.000000 11.138700 -0.545592 -1.382220 16.377300 -0.000001 -0.000001 3.084810 -3.813980 1.272600 6.456720 -0.000001 -0.000000 -1.472190 -3.404060 0.418449 12.994200 -0.242716 4.980390 -91.244300 4.381270 -74.128300 5.348090 -0.000007 -0.000001 -61.315200 34.016800 -21.172600 24.328600 0.000019 0.000005 7.091670 17.211800 -22.803500 22.291600 -0.000001 0.000005 14.179700 5.257320 1.238540 12.994500 -0.242716 -4.980390 88.550300 9.761020 -81.510000 -5.348130 -0.000001 -0.000004 -61.283100 29.555700 -15.538700 -24.328900 0.000322 -0.000009 -0.099158 -0.205585 -25.487600 -22.291500 -0.000108 -0.000004 16.495600 5.435080 -4.114480 -2.192480 -6.469440 -0.000000 178.591000 -10.985700 -15.014400 39.081100 -0.000007 -0.000012 -0.332834 0.378754 41.308400 40.985400 -0.000006 -0.000013 3.339180 -3.232260 -74.827900 11.754300 -0.000000 0.000003 -0.000419 -0.003440 -16.704200 -2.192510 6.469440 -0.000001 176.495000 12.052800 162.044000 -39.081100 -0.002282 -0.040193 0.142938 -0.054440 68.724700 -40.985400 0.000008 0.000006 2.383610 1.136020 -56.654200 -11.754300 -0.000006 -0.000006 -0.019899 -0.166730 -23.384800
0.000000 0.000000 0.000000 0.000000 0.000000 -0.000000 127.912000 88.962400 -8.043120 87.883700 -4.480290 2.140770 15.735700 0.000005 -0.000001 86.704500 80.578100 -87.213300 8.984550 -0.406207 -0.000000 11.043300 -1.089620 -0.911791 16.377300 -0.000001 -0.000001 3.071740 -3.785710 1.231800 6.456720 -0.000001 -0.000000 -1.401180 -3.139120 0.272596 12.994200 -0.242716 4.980390 -91.271500 4.513300 -74.248300 5.348090 -0.000007 -0.000001 -59.457200 33.846000 -24.021000 24.328600 0.000019 0.000005 7.109820 17.212800 -22.855300 22.291600 -0.000001 0.000005 14.441200 5.256740 1.253630 12.994500 -0.242716 -4.980390 88.502500 9.858780 -81.318700 -5.348130 -0.000001 -0.000004 -62.003900 30.088500 -13.918400 -24.328900 0.000322 -0.000009 0.199348 0.429249 -25.030300 -22.291500 -0.000108 -0.000004 16.242200 5.429060 -3.906700 -2.192480 -6.469440 -0.000000 179.257000 -10.320500 -12.919900 39.081100 -0.000007 -0.000012 -0.339005 0.406867 39.802100 40.985400 -0.000006 -0.000013 3.151440 -3.363150 -75.445700 11.754300 -0.000000 0.000003 -0.000451 -0.003657 -16.711800 -2.192510 6.469440 -0.000001 177.975000 11.520600 159.629000 -39.081100 -0.002282 -0.040193 0.102541 -0.039679 68.240200 -40.985400 0.000008 0.000006 3.791800 -1.839950 -58.641200 -11.754300 -0.000006 -0.000006 -0.018607 -0.159450 -23.085100
0.000000 0.000000 0.000000 0.000000 0.000000 -0.000000 127.935000 89.305900 -6.231100 87.420000 -4.086560 2.037280 15.735700 0.000005 -0.000001 85.771100 80.600300 -86.093700 8.984550 -0.406207 -0.000000 10.980700 -1.385010 -0.511726 16.377300 -0.000001 -0.000001 3.098890 -3.816050 1.282600 6.456720 -0.000001 -0.000000 -1.332040 -3.003270 0.511300 12.994200 -0.242716 4.980390 -91.190800 4.272920 -74.412200 5.348090 -0.000007 -0.000001 -57.996900 33.831200 -26.878500 24.328600 0.000019 0.000005 7.205960 17.446500 -22.865500 22.291600 -0.000001 0.000005 14.678200 5.250800 1.411210 12.994500 -0.242716 -4.980390 88.493600 9.736550 -81.161400 -5.348130 -0.000001 -0.000004 -62.869200 30.438800 -12.337300 -24.328900 0.000322 -0.000009 0.291899 0.646407 -24.385300 -22.291500 -0.000108 -0.000004 15.808600 5.426840 -3.830860 -2.192480 -6.469440 -0.000000 179.733000 -10.145300 -10.662700 39.081100 -0.000007 -0.000012 -0.274968 0.354096 37.831100 40.985400 -0.000006 -0.000013 3.874210 -3.512510 -75.782500 11.754300 -0.000000 0.000003 -0.464201 -0.635229 -16.287900 -2.192510 6.469440 -0.000001 179.460000 10.823000 157.980000 -39.081100 -0.002282 -0.040193 0.061185 -0.027566 64.585800 -40.985400 0.000008 0.000006 4.913530 -3.461370 -60.603100 -11.754300 -0.000006 -0.000006 -0.017845 -0.155044 -22.903800
0.000000 0.000000 0.000000 0.000000 0.000000 -0.000000 127.919000 89.605800 -4.589830 87.029100 -3.702170 1.774040 15.735700 0.000005 -0.000001 84.943600 80.648400 -85.091000 8.984550 -0.406207 -0.000000 10.865500 -1.640390 -0.138674 16.377300 -0.000001 -0.000001 3.060820 -3.852640 1.335470 6.456720 -0.000001 -0.000000 -1.277230 -2.914880 0.918795 12.994200 -0.242716 4.980390 -91.076500 3.897580 -74.547900 5.348090 -0.000007 -0.000001 -56.729600 33.801900 -29.454000 24.328600 0.000019 0.000005 7.346240 17.539900 -23.160600 22.291600 -0.000001 0.000005 14.958400 5.250320 1.424240 12.994500 -0.242716 -4.980390 88.482000 9.649380 -81.015700 -5.348130 -0.000001 -0.000004 -63.583200 30.600100 -11.036400 -24.328900 0.000322 -0.000009 0.534084 1.219630 -23.694300 -22.291500 -0.000108 -0.000004 15.238400 5.417880 -3.527290 -2.192480 -6.469440 -0.000000 179.883000 -10.142900 -8.800070 39.081100 -0.000007 -0.000012 -0.055663 0.076704 35.968500 40.985400 -0.000006 -0.000013 6.426790 -4.072050 -76.006400 11.754300 -0.000000 0.000003 -1.861500 -2.501780 -15.080800 -2.192510 6.469440 -0.000001 -179.100000 10.390900 156.696000 -39.081100 -0.002282 -0.040193 0.036862 -0.020574 58.560000 -40.985400 0.000008 0.000006 4.623950 -3.408550 -62.156800 -11.754300 -0.000006 -0.000006 -0.017390 -0.152380 -22.794300
0.000000 0.000000 0.000000 0.000000 0.000000 -0.000000 127.858000 89.846100 -3.011760 86.723400 -3.119100 1.334650 15.735700 0.000005 -0.000001 83.699900 80.701600 -83.672100 8.984550 -0.406207 -0.000000 10.723900 -2.025480 0.245630 16.377300 -0.000001 -0.000001 2.856140 -3.866230 1.376000 6.456720 -0.000001 -0.000000 -1.293850 -2.833100 1.267060 12.994200 -0.242716 4.980390 -90.988500 3.620390 -74.716700 5.348090 -0.000007 -0.000001 -55.555600 33.514200 -31.483100 24.328600 0.000019 0.000005 7.521830 17.178900 -24.087100 22.291600 -0.000001 0.000005 15.048200 5.255770 1.280030 12.994500 -0.242716 -4.980390 88.446000 9.760440 -80.908100 -5.348130 -0.000001 -0.000004 -64.042000 30.452300 -10.075600 -24.328900 0.000322 -0.000009 0.697462 1.647600 -22.980200 -22.291500 -0.000108 -0.000004 14.965300 5.418550 -3.550150 -2.192480 -6.469440 -0.000000 -179.785000 -9.960790 -7.625900 39.081100 -0.000007 -0.000012 0.017575 -0.025270 34.815900 40.985400 -0.000006 -0.000013 7.242020 -3.942030 -75.554500 11.754300 -0.000000 0.000003 -2.093590 -2.779510 -15.801900 -2.192510 6.469440 -0.000001 -177.559000 10.832300 155.607000 -39.081100 -0.002282 -0.040193 0.023633 -0.016532 50.964600 -40.985400 0.000008 0.000006 4.004770 -2.153090 -62.141100 -11.754300 -0.000006 -0.000006 -0.017529 -0.153197 -22.827900
0.000000 0.000000 0.000000 0.000000 0.000000 -0.000000 127.734000 89.995700 -1.425850 86.537700 -2.475030 0.864098 15.735700 0.000005 -0.000001 82.416100 80.746000 -82.227500 8.984550 -0.406207 -0.000000 10.591000 -2.420950 0.601600 16.377300 -0.000001 -0.000001 2.613900 -3.923670 1.413590 6.456720 -0.000001 -0.000000 -1.402340 -2.772730 1.481950 12.994200 -0.242716 4.980390 -90.939400 3.475800 -74.866600 5.348090 -0.000007 -0.000001 -54.262200 33.362800 -33.033300 24.328600 0.000019 0.000005 7.943270 16.898000 -25.642600 22.291600 -0.000001 0.000005 15.228900 5.260820 1.145020 12.994500 -0.242716 -4.980390 88.406000 9.856010 -80.765900 -5.348130 -0.000001 -0.000004 -64.469300 30.091600 -9.404060 -24.328900 0.000322 -0.000009 0.858506 2.100850 -22.258500 -22.291500 -0.000108 -0.000004 14.961200 5.416120 -3.468610 -2.192480 -6.469440 -0.000000 -179.353000 -9.694820 -6.848930 39.081100 -0.000007 -0.000012 0.010426 -0.015295 34.277900 40.985400 -0.000006 -0.000013 6.883340 -3.306600 -74.922400 11.754300 -0.000000 0.000003 -2.317250 -3.046370 -16.907000 -2.192510 6.469440 -0.000001 -175.770000 12.602700 154.663000 -39.081100 -0.002282 -0.040193 0.015828 -0.013462 43.010700 -40.985400 0.000008 0.000006 3.369730 0.435778 -61.934500 -11.754300 -0.000006 -0.000006 -0.017803 -0.154803 -22.893900
